<?xml version="1.0" encoding="utf-8"?>
<!-- Generator: Adobe Illustrator 17.1.0, SVG Export Plug-In . SVG Version: 6.00 Build 0)  -->
<!DOCTYPE svg PUBLIC "-//W3C//DTD SVG 1.1//EN" "http://www.w3.org/Graphics/SVG/1.1/DTD/svg11.dtd">
<svg version="1.1" xmlns="http://www.w3.org/2000/svg" xmlns:xlink="http://www.w3.org/1999/xlink" x="0px" y="0px"
	 viewBox="0 0 100 100" enable-background="new 0 0 100 100" xml:space="preserve">
<g id="Layer_2">
	<circle fill="#2A2C2F" cx="51.1" cy="45.9" r="45.4"/>
</g>
<g id="Layer_1">
	<path fill="#FFFFFF" d="M21.8,40.8l2.7-1.3l4.2-6.3l1.3-0.5l1.4,6.4l-1.8,0.3l-1.4-2.6l-1,4.1h4.5l4.7,1.2l1.9-1.2l3.2,3.3l1.4-6.1
		l2.2,2.3l1.4-1.9l2.2-0.6l3.3-3.1l0.5-1.5l2.7,0.4l1.1,1.5l-2,4.2l4.9-2.5v-1.2l1.9-0.4l2.1,2.1l2.1-2.5V33l3.3-2.4l1.4-2h2.1
		l3.8-7.8l3.3-3.4l1.2,1.9l-1.9,2.4l0.7,1.6l1.8,0.3l1.5,6.5v5.4l2.6,3.6l1.3,5l-4.5-2.9l-2-8.3l-1.2,0.3l-0.2,5.6L75,44.1L74,52.3
		l2.2,0.5l0.9-1.1l2.1,2.4l1.6,7.3l-0.2,4.7h-2.1L78,59.5l-1.5,2l-3.2-0.7l-2.6-2.2l-2.9,1l0.2,4.7L65.7,65l-3.4,2.6l-4.1-0.5
		l-1.6-1L54,66.6l0.9,1l-2.1,1.2l-1.6-0.8l-3.1,1.4l-4.7-2.4l-1.8-4.2L40,63.1l-1.8-1.5l-0.1-1.1l-5.7-0.6L31.5,63l-3.6-1.7
		l-1.8-3.1h-3.9l-0.4,4.9l-2.2,0.7l-1.1,4.4l-0.9-0.8L14,58.2l4.3-2.1L17.6,52l-0.7-4.2l1.9-2.7l-0.6-1.7l2.6-2.8L21.8,40.8z
		 M78.7,51.1l3.9,5.9l1.3-0.5l-1.6-2.4l-3.6-3.8V51.1z M38.5,39.1v-1.7l3-2.2l2.6-1.3h-3l-2.7,1.6l-1.6,1.5v2.2H38.5z"/>
</g>
</svg>
